<?xml version="1.0" encoding="UTF-8"?>
<svg version="1.1" xmlns="http://www.w3.org/2000/svg" width="1280" height="700">
<path d="M0 0 C131.01 0 262.02 0 397 0 C390.25171467 7.87299955 390.25171467 7.87299955 387.12524414 10.97241211 C386.4275441 11.66680893 385.72984406 12.36120575 385.01100159 13.0766449 C384.27647263 13.80287552 383.54194366 14.52910614 382.78515625 15.27734375 C382.01119003 16.04752335 381.23722382 16.81770294 380.43980408 17.61122131 C377.15678267 20.87802854 373.86782055 24.13883041 370.5793457 27.40014648 C368.16668469 29.79461138 365.75711573 32.19215797 363.34765625 34.58984375 C362.24889915 35.67615334 362.24889915 35.67615334 361.12794495 36.78440857 C357.82951303 40.06729448 354.62663351 43.37589184 351.59350586 46.90649414 C347.35911486 51.81816534 342.76121777 56.34458452 338.15625 60.90625 C336.7380835 62.31862932 335.31991993 63.73101161 333.90192413 65.14356232 C330.93933555 68.09312024 327.97215979 71.03806312 325.00579834 73.98382568 C322.55418969 76.41877106 320.10362669 78.85474816 317.65563965 81.29333496 C315.82931571 83.11220613 314.00074639 84.92882652 312.16955566 86.74279785 C308.49454323 90.40332017 304.88124454 94.0647593 301.5 98 C297.30252453 102.88520605 292.72976174 107.37574476 288.15625 111.90625 C286.7380835 113.31862932 285.31991993 114.73101161 283.90192413 116.14356232 C280.93933555 119.09312024 277.97215979 122.03806312 275.00579834 124.98382568 C272.55418969 127.41877106 270.10362669 129.85474816 267.65563965 132.29333496 C265.82931571 134.11220613 264.00074639 135.92882652 262.16955566 137.74279785 C258.49454323 141.40332017 254.88124454 145.0647593 251.5 149 C247.30252453 153.88520605 242.72976174 158.37574476 238.15625 162.90625 C236.7380835 164.31862932 235.31991993 165.73101161 233.90192413 167.14356232 C230.93933555 170.09312024 227.97215979 173.03806312 225.00579834 175.98382568 C222.55418969 178.41877106 220.10362669 180.85474816 217.65563965 183.29333496 C215.82931571 185.11220613 214.00074639 186.92882652 212.16955566 188.74279785 C207.87266126 193.02275013 203.75862852 197.36901488 199.80725098 201.96789551 C196.17796501 206.04872789 192.25389197 209.84600981 188.375 213.6875 C187.01640869 215.04041138 187.01640869 215.04041138 185.63037109 216.4206543 C182.27078694 219.76605444 178.90668738 223.10688392 175.54223633 226.4473877 C172.23365649 229.732918 168.92897519 233.02233791 165.625 236.3125 C164.76438965 237.16481201 163.9037793 238.01712402 163.01708984 238.89526367 C159.3971674 242.50056377 155.84399079 246.11027756 152.51367188 249.98632812 C148.31078125 254.87539255 143.73436297 259.3711868 139.15625 263.90625 C137.7380835 265.31862932 136.31991993 266.73101161 134.90192413 268.14356232 C131.93933555 271.09312024 128.97215979 274.03806312 126.00579834 276.98382568 C123.55418969 279.41877106 121.10362669 281.85474816 118.65563965 284.29333496 C116.82931571 286.11220613 115.00074639 287.92882652 113.16955566 289.74279785 C109.49454323 293.40332017 105.88124454 297.0647593 102.5 301 C98.30252453 305.88520605 93.72976174 310.37574476 89.15625 314.90625 C87.7380835 316.31862932 86.31991993 317.73101161 84.90192413 319.14356232 C81.93933555 322.09312024 78.97215979 325.03806312 76.00579834 327.98382568 C73.55418969 330.41877106 71.10362669 332.85474816 68.65563965 335.29333496 C66.82931571 337.11220613 65.00074639 338.92882652 63.16955566 340.74279785 C59.49600132 344.40186782 55.88398506 348.06165511 52.50439453 351.99560547 C48.28410753 356.90738572 43.6841446 361.42128888 39.0859375 365.9765625 C37.66077345 367.3959404 36.23561224 368.81532117 34.81061745 370.234869 C32.3342298 372.70041164 29.85451676 375.16260489 27.375 377.625 C24.40457771 380.57496401 21.43478535 383.52554314 18.46890259 386.48007202 C16.62927768 388.31221271 14.78740097 390.14209599 12.94296265 391.96939087 C7.76826229 397.12004738 7.76826229 397.12004738 2.95947266 402.60693359 C2.31284668 403.39664551 1.6662207 404.18635742 1 405 C0.67 405 0.34 405 0 405 C0 271.35 0 137.7 0 0 Z " fill="#020403" transform="translate(0,0)"/>
</svg>
